# xmcd
#
# Track frame offsets: 
#        150
#        21076
#        42004
#        58129
#        81078
#        103542
#        127532
#        156303
#        171004
#        195847
#
# Disc length: 3032 seconds
#
# Revision: 0
# Processed by: cddbd v1.5.2PL0 Copyright (c) Steve Scherf et al.
# Submitted via: ExactAudioCopy v0.99pb5
#
DISCID=6d0bd60a
DTITLE=Harmonijkowy Atak - harpcore
DYEAR=2011
DGENRE=Blues
TTITLE0=RIght Place, Wrong Time
TTITLE1=Bad Girls
TTITLE2=Higher and Higher
TTITLE3=Steamy Windows
TTITLE4=I'd Rather Be Blind Cripled And Crazy
TTITLE5=Superstition
TTITLE6=Chitlins Con Carne
TTITLE7=Walkin' Blues
TTITLE8=What A Woman
TTITLE9=Take Me To The River
EXTD=
EXTT0=
EXTT1=
EXTT2=
EXTT3=
EXTT4=
EXTT5=
EXTT6=
EXTT7=
EXTT8=
EXTT9=
PLAYORDER=
